<?xml version="1.0" encoding="utf-8"?>
<!-- Generator: Adobe Illustrator 27.9.0, SVG Export Plug-In . SVG Version: 6.00 Build 0)  -->
<svg version="1.1" id="レイヤー_1" xmlns="http://www.w3.org/2000/svg" xmlns:xlink="http://www.w3.org/1999/xlink" x="0px"
	 y="0px" viewBox="0 0 80 80" style="enable-background:new 0 0 80 80;" xml:space="preserve">
<style type="text/css">
	.st0{fill:#8DC21F;}
	.st1{fill:#231815;}
</style>
<g>
	<g>
		<path class="st0" d="M20.5,52c0.7-10.9-6.8-19.7-4.1-30.9C20.2,7.2,42.2,6.2,51.7,14c12.2,9.5,21.4,44.5-0.7,46.2
			c-6.8,0.7-28.5,0.3-32.2-7.8"/>
		<g>
			<path class="st1" d="M23,52c0.4-7.9-3.3-14.9-4.4-22.5c-0.3-1.8-0.3-3.7-0.1-5.5c0.1-0.8,0.2-1.7,0.5-2.5
				c0.1-0.3,0.2-0.6,0.3-0.9c0.2-0.5,0-0.2,0.3-0.6c1.1-2.2,2.5-3.8,4.4-5.1c2.2-1.5,4.2-2.2,6.9-2.8c2.4-0.5,5-0.7,7.8-0.4
				c2.3,0.2,4.9,0.8,7.4,1.7c0.4,0.2,0.7,0.3,1.3,0.6c0.6,0.3,1.1,0.6,1.6,0.9c0.2,0.2,0.5,0.3,0.7,0.5c0.1,0.1,0.7,0.5,0.4,0.2
				c0.4,0.3,0.8,0.7,1.2,1c0.7,0.7,1.4,1.4,2.1,2.1c0.8,0.9,0.9,1.1,1.7,2.2c1.4,2,2.5,4.1,3.5,6.4c0.4,0.8,0.8,1.9,1.2,3.1
				c0.4,1.2,0.8,2.4,1.1,3.5c0.3,1.2,0.6,2.5,0.8,3.7c0.2,1.3,0.3,1.7,0.4,3.2c0.1,1.2,0.1,2.4,0.1,3.6c0,0.5,0,1.1-0.1,1.6
				c0,0.3-0.1,0.5-0.1,0.8c0.1-0.5,0,0.3-0.1,0.4c-0.2,1.1-0.4,2.1-0.8,3.1c-0.1,0.2-0.2,0.5-0.3,0.7c-0.1,0.3,0-0.1,0.1-0.1
				c-0.1,0.1-0.1,0.3-0.2,0.4c-0.2,0.5-0.5,0.9-0.7,1.3c-0.1,0.2-0.2,0.4-0.4,0.6c-0.1,0.1-0.4,0.6-0.3,0.4c0.2-0.2-0.2,0.3-0.3,0.4
				c-0.2,0.2-0.4,0.4-0.6,0.7c-0.2,0.2-0.3,0.3-0.5,0.5c-0.1,0.1-0.2,0.1-0.2,0.2c-0.3,0.2,0.3-0.2,0,0c-0.4,0.3-0.9,0.6-1.3,0.8
				c-0.2,0.1-0.4,0.2-0.7,0.3c-0.5,0.3,0.1,0-0.3,0.1c-0.6,0.2-1.2,0.4-1.8,0.6c-1.3,0.3-1.7,0.3-2.9,0.4c-4.8,0.4-9.8,0.2-14.6-0.4
				c-2.4-0.3-5.3-0.8-7.9-1.6c-0.6-0.2-1.2-0.4-1.8-0.6c-0.7-0.3-0.6-0.2-1.4-0.6c-0.5-0.2-1-0.5-1.4-0.8c-0.2-0.1-0.4-0.3-0.7-0.4
				c-0.4-0.3-0.1-0.1,0,0c-0.1-0.1-0.3-0.2-0.4-0.3c-0.2-0.2-0.4-0.3-0.5-0.5c-0.1-0.1-0.5-0.6-0.3-0.4c0.2,0.2-0.2-0.3-0.3-0.4
				c-0.1-0.2-0.3-0.4-0.4-0.7c-0.6-1.2-2.3-1.5-3.4-0.9c-1.2,0.7-1.5,2.2-0.9,3.4c2.4,5,8.8,6.9,13.8,7.9c5.7,1.2,11.6,1.5,17.5,1.4
				c5-0.2,10-0.9,13.8-4.5c3.6-3.4,5-8.5,5.3-13.3c0.3-5.3-0.8-10.8-2.6-15.8c-1.8-5-4.3-9.9-7.7-14C49.3,6.6,35.7,4.4,25.4,8.5
				c-5.7,2.3-10.5,6.8-11.6,13.1c-0.8,4.3-0.3,8.7,0.8,12.9c1,3.9,2.4,7.7,3.1,11.7C18,48.1,18.1,50,18,52
				C17.8,55.2,22.8,55.2,23,52L23,52z"/>
		</g>
	</g>
	<g>
		<path class="st0" d="M30.4,24.8c0.3,1.4,0.3,3.1,0.3,4.4"/>
		<g>
			<path class="st1" d="M28,25.5c0.1,0.3,0.1,0.7,0.2,1c0-0.2-0.1-0.4-0.1-0.7c0.1,1.1,0.1,2.3,0.1,3.4c0,0.6,0.3,1.3,0.7,1.8
				c0.4,0.4,1.1,0.8,1.8,0.7c0.6,0,1.3-0.2,1.8-0.7c0.4-0.5,0.7-1.1,0.7-1.8c0-1.7,0-3.4-0.4-5.1c-0.1-0.6-0.6-1.2-1.1-1.5
				c-0.5-0.3-1.3-0.4-1.9-0.3c-0.6,0.2-1.2,0.6-1.5,1.1C27.9,24.2,27.8,24.8,28,25.5L28,25.5z"/>
		</g>
	</g>
	<g>
		<path class="st0" d="M40.2,24.8c0.3,2,0.3,4.1,0.3,6.1"/>
		<g>
			<path class="st1" d="M37.8,25.5c0,0.2,0.1,0.4,0.1,0.6C37.9,25.9,37.8,25.6,37.8,25.5c0.2,1.8,0.3,3.6,0.3,5.4
				c0,0.6,0.3,1.3,0.7,1.8c0.4,0.4,1.1,0.8,1.8,0.7c1.4-0.1,2.5-1.1,2.5-2.5c0-2.3-0.1-4.5-0.4-6.8c-0.1-0.6-0.7-1.2-1.1-1.5
				c-0.5-0.3-1.3-0.4-1.9-0.3c-0.6,0.2-1.2,0.6-1.5,1.1C37.7,24.2,37.7,24.8,37.8,25.5L37.8,25.5z"/>
		</g>
	</g>
	<g>
		<path class="st0" d="M16.1,36.7C8,64.5,2.2,24.5,13.7,29.2"/>
		<g>
			<path class="st1" d="M13.7,36c-0.5,1.8-1.1,3.5-1.8,5.2c0.1-0.2,0.2-0.4,0.3-0.6c-0.5,1.2-1.1,2.4-1.8,3.4
				c0.1-0.2,0.3-0.3,0.4-0.5c-0.3,0.3-0.5,0.6-0.9,0.9c0.2-0.1,0.3-0.3,0.5-0.4c-0.2,0.1-0.3,0.2-0.5,0.3c0.2-0.1,0.4-0.2,0.6-0.3
				c-0.1,0.1-0.3,0.1-0.4,0.1c0.2,0,0.4-0.1,0.7-0.1c-0.1,0-0.2,0-0.4,0c0.2,0,0.4,0.1,0.7,0.1c-0.1,0-0.2-0.1-0.4-0.1
				c0.2,0.1,0.4,0.2,0.6,0.3c-0.1-0.1-0.3-0.1-0.4-0.2c0.2,0.1,0.3,0.3,0.5,0.4c-0.2-0.1-0.3-0.3-0.5-0.5c0.1,0.2,0.3,0.3,0.4,0.5
				c-0.3-0.4-0.5-0.8-0.7-1.3c0.1,0.2,0.2,0.4,0.3,0.6c-0.5-1.1-0.7-2.4-0.9-3.6c0,0.2,0.1,0.4,0.1,0.7c-0.3-1.9-0.3-3.8,0-5.7
				c0,0.2-0.1,0.4-0.1,0.7c0.2-1.2,0.4-2.3,0.9-3.4c-0.1,0.2-0.2,0.4-0.3,0.6c0.2-0.5,0.5-1,0.8-1.5c-0.1,0.2-0.3,0.3-0.4,0.5
				c0.2-0.3,0.5-0.6,0.8-0.8c-0.2,0.1-0.3,0.3-0.5,0.4c0.2-0.2,0.5-0.3,0.7-0.4c-0.2,0.1-0.4,0.2-0.6,0.3c0.3-0.1,0.5-0.2,0.8-0.2
				c-0.2,0-0.4,0.1-0.7,0.1c0.3,0,0.7,0,1,0c-0.2,0-0.4-0.1-0.7-0.1c0.4,0.1,0.9,0.2,1.3,0.4c0.6,0.2,1.4,0,1.9-0.3
				c0.5-0.3,1-0.9,1.1-1.5c0.1-0.6,0.1-1.4-0.3-1.9c-0.4-0.6-0.9-0.9-1.5-1.1c-1.3-0.5-2.9-0.7-4.2-0.2c-1.5,0.5-2.6,1.5-3.4,2.8
				c-0.7,1.1-1.2,2.4-1.4,3.6c-0.3,1.4-0.5,2.9-0.5,4.4c0,1.5,0.1,3,0.3,4.5c0.2,1.1,0.4,2.2,0.8,3.2c0.5,1.3,1.2,2.5,2.4,3.4
				c1.3,0.9,2.9,0.8,4.2,0.1c1.3-0.7,2.2-2,2.9-3.2c1.1-1.9,1.9-4,2.5-6.1c0.2-0.6,0.4-1.3,0.6-1.9c0.4-1.3-0.4-2.8-1.7-3.1
				C15.4,34,14.1,34.7,13.7,36L13.7,36z"/>
		</g>
	</g>
	<g>
		<path class="st0" d="M62.3,31.3c0-4.1,1-19.7,9.8-16.3c5.1,1.7,3.4,19.7-5.4,18"/>
		<g>
			<path class="st1" d="M64.8,31.3c0-1.1,0.1-2.3,0.2-3.4c0-0.4,0.1-0.7,0.1-1.1c0-0.2,0.1-0.4,0.1-0.6c0-0.4-0.1,0.5,0-0.2
				c0.1-0.8,0.3-1.6,0.4-2.4c0.2-0.8,0.4-1.6,0.7-2.4c0.1-0.4,0.3-0.7,0.4-1.1c0.2-0.4-0.2,0.5,0-0.1c0.1-0.2,0.2-0.4,0.3-0.6
				c0.2-0.3,0.3-0.6,0.5-0.9c0.1-0.1,0.2-0.3,0.3-0.4c-0.3,0.4-0.1,0.2,0.1-0.1c0.1-0.1,0.5-0.7,0.7-0.7c0,0-0.6,0.4-0.2,0.1
				c0.1,0,0.1-0.1,0.2-0.1c0.1-0.1,0.4-0.2,0.5-0.3c0.2-0.2-0.5,0.1-0.2,0.1c0.1,0,0.1-0.1,0.2-0.1c0.2,0,0.3-0.1,0.5-0.1
				c0.5-0.2-0.4,0,0,0c0.2,0,0.4,0,0.6,0c0.7,0-0.2-0.1,0.1,0c0.2,0,0.3,0.1,0.5,0.1c0.2,0.1,0.5,0.1,0.7,0.2c0.1,0,0.1,0.1,0.2,0.1
				c0.2,0-0.5-0.3-0.3-0.1c0.1,0,0.2,0.2,0.3,0.2c0,0-0.5-0.4-0.2-0.1c0.1,0.1,0.1,0.2,0.2,0.2c0.4,0.4-0.3-0.4,0,0
				c0.1,0.2,0.3,0.5,0.4,0.7c0.2,0.4-0.1-0.5,0-0.1c0,0.2,0.1,0.3,0.2,0.5c0.1,0.3,0.2,0.6,0.2,0.9c0,0.2,0.1,0.3,0.1,0.5
				c0.1,0.6,0-0.5,0,0.1c0.1,0.7,0.1,1.5,0.1,2.2c0,0.4,0,0.8-0.1,1.1c0,0.1-0.1,0.7,0,0.3c0.1-0.4,0,0.3-0.1,0.4
				c-0.1,0.8-0.3,1.5-0.6,2.3c-0.1,0.2-0.2,0.5-0.2,0.7c0,0.1-0.1,0.1-0.1,0.2c-0.2,0.4,0.2-0.4,0-0.1c-0.2,0.4-0.4,0.7-0.6,1.1
				c-0.1,0.2-0.2,0.3-0.3,0.5c-0.1,0.1-0.5,0.6-0.2,0.3c0.3-0.3-0.2,0.2-0.3,0.3c-0.1,0.1-0.3,0.3-0.4,0.4c-0.1,0-0.1,0.1-0.2,0.1
				c-0.4,0.3,0.1,0,0.1-0.1c0,0.1-0.4,0.3-0.4,0.3c-0.2,0.1-0.3,0.2-0.5,0.3c-0.3,0.2,0.5-0.1,0,0c-0.2,0-0.4,0.1-0.5,0.1
				c-0.4,0.1,0.3-0.1,0.3,0c0,0-0.3,0-0.4,0c-0.2,0-0.4,0-0.6,0c-0.1,0-0.2,0-0.2,0c-0.5,0,0.6,0.1,0,0c-1.3-0.2-2.7,0.4-3.1,1.7
				c-0.3,1.2,0.4,2.8,1.7,3.1c9.2,1.7,12.5-9.9,11.1-17c-0.3-1.6-1-3.3-2.2-4.5c-1.3-1.4-3.6-2-5.4-1.9c-4.5,0.2-6.9,4.1-8.2,8
				c-1.2,3.6-1.6,7.5-1.6,11.3c0,1.4,1.2,2.5,2.5,2.5C63.6,33.8,64.8,32.6,64.8,31.3L64.8,31.3z"/>
		</g>
	</g>
	<g>
		<path class="st0" d="M28.3,60.1c-2.7,2-3.1,5.1-0.3,6.4c3.4,2,6.1-1.7,7.8-3.7"/>
		<g>
			<path class="st1" d="M27.1,58c-1.5,1.1-2.9,2.6-3.3,4.5c-0.4,1.9,0,3.8,1.4,5.2c1.2,1.2,3.2,2.1,4.9,2c1.8-0.1,3.3-0.9,4.7-2.1
				c1-0.9,1.9-2,2.7-3c0.4-0.5,0.7-1.1,0.7-1.8c0-0.6-0.3-1.3-0.7-1.8c-0.9-0.8-2.6-1.1-3.5,0c-0.9,1.1-1.8,2.3-3,3.2
				c0.2-0.1,0.3-0.3,0.5-0.4c-0.4,0.3-0.9,0.6-1.3,0.8c0.2-0.1,0.4-0.2,0.6-0.3c-0.3,0.1-0.7,0.2-1,0.3c0.2,0,0.4-0.1,0.7-0.1
				c-0.3,0-0.6,0-1,0c0.2,0,0.4,0.1,0.7,0.1c-0.3,0-0.6-0.1-0.9-0.2c0.2,0.1,0.4,0.2,0.6,0.3c-0.4-0.2-0.9-0.4-1.3-0.7
				c0.2,0.1,0.3,0.3,0.5,0.4c-0.2-0.2-0.4-0.4-0.6-0.6c0.1,0.2,0.3,0.3,0.4,0.5c-0.1-0.2-0.3-0.4-0.4-0.6c0.1,0.2,0.2,0.4,0.3,0.6
				c-0.1-0.2-0.2-0.5-0.2-0.8c0,0.2,0.1,0.4,0.1,0.7c0-0.3,0-0.5,0-0.8c0,0.2-0.1,0.4-0.1,0.7c0-0.3,0.1-0.6,0.3-0.9
				c-0.1,0.2-0.2,0.4-0.3,0.6c0.2-0.4,0.4-0.7,0.6-1.1c-0.1,0.2-0.3,0.3-0.4,0.5c0.3-0.4,0.7-0.8,1.2-1.2c-0.2,0.1-0.3,0.3-0.5,0.4
				c0,0,0.1-0.1,0.1-0.1c0.5-0.4,1-0.8,1.1-1.5c0.2-0.6,0.1-1.4-0.3-1.9c-0.3-0.5-0.9-1-1.5-1.1C28.4,57.6,27.6,57.6,27.1,58
				L27.1,58z"/>
		</g>
	</g>
	<g>
		<path class="st0" d="M50.4,62.2c1.4,12.6,18.7,3.7,10.9-2.7"/>
		<g>
			<path class="st1" d="M47.9,62.2c0.3,2.5,1,5.2,3.1,6.9c1.6,1.4,3.7,2.1,5.9,2c1.9-0.1,3.9-0.7,5.4-1.9c1.6-1.2,3-2.7,3.4-4.7
				c0.5-2.6-0.6-5.1-2.6-6.7c-1-0.8-2.6-1.1-3.5,0c-0.8,0.9-1.1,2.6,0,3.5c0.3,0.3,0.7,0.6,0.9,0.9c0.3,0.3-0.2-0.2-0.2-0.2
				c0,0,0.2,0.2,0.2,0.2c0.1,0.2,0.2,0.3,0.3,0.5c0.1,0.1,0.2,0.4,0-0.1c-0.2-0.5-0.1-0.1,0,0c0,0.2,0.1,0.3,0.1,0.5
				c0.1,0.6,0-0.7,0-0.2c0,0.2,0,0.3,0,0.5c0,0.6,0.1-0.7,0-0.2c0,0.1-0.1,0.3-0.1,0.4c0,0.1-0.1,0.1-0.1,0.2
				c-0.1,0.3,0.3-0.6,0.1-0.4c-0.1,0.1-0.1,0.3-0.2,0.4c-0.1,0.1-0.2,0.3-0.3,0.4C60,64.6,60.4,64,60.5,64c0,0-0.2,0.2-0.2,0.2
				c-0.2,0.2-0.4,0.5-0.7,0.7c-0.1,0.1-0.2,0.1-0.2,0.2c0-0.1,0.6-0.4,0.3-0.2c-0.2,0.1-0.3,0.2-0.5,0.3c-0.3,0.2-0.6,0.3-0.9,0.5
				c-0.4,0.2,0.5-0.2,0.3-0.1c-0.1,0-0.1,0.1-0.2,0.1c-0.2,0.1-0.3,0.1-0.5,0.2c-0.3,0.1-0.7,0.2-1.1,0.2c-0.2,0,0.8-0.1,0.4,0
				c-0.1,0-0.2,0-0.3,0c-0.2,0-0.4,0-0.5,0c-0.2,0-0.3,0-0.5,0c-0.1,0-0.2,0-0.3,0c0,0,0.7,0.1,0.5,0.1c-0.1,0-0.1,0-0.2,0
				c-0.3-0.1-0.7-0.2-1-0.3c-0.4-0.1,0.6,0.3,0.3,0.1c-0.1,0-0.1-0.1-0.2-0.1c-0.2-0.1-0.3-0.2-0.5-0.3c0,0-0.2-0.2-0.3-0.2
				c0,0,0.5,0.4,0.3,0.3c0,0-0.1-0.1-0.2-0.1c-0.2-0.1-0.3-0.3-0.4-0.4c-0.1-0.1-0.1-0.2-0.2-0.3c-0.1-0.1,0.4,0.6,0.2,0.2
				c-0.1-0.2-0.3-0.4-0.4-0.6c-0.1-0.1-0.1-0.2-0.2-0.3c0-0.1-0.1-0.1-0.1-0.2c-0.1-0.2,0.2,0.6,0.1,0.3c-0.1-0.2-0.2-0.5-0.3-0.7
				c-0.1-0.3-0.2-0.6-0.2-0.9c0-0.1-0.1-0.3-0.1-0.4c-0.1-0.5,0.1,0.6,0,0c-0.1-0.7-0.2-1.3-0.7-1.8c-0.4-0.4-1.1-0.8-1.8-0.7
				C49.2,59.7,47.7,60.8,47.9,62.2L47.9,62.2z"/>
		</g>
	</g>
	<g>
		<path class="st0" d="M17.5,37c13.2,0.7,32.6,6.1,44.8,0"/>
		<g>
			<path class="st1" d="M17.5,39.5c7.8,0.4,15.4,1.9,23.2,2.6c7.7,0.6,15.8,0.5,22.9-2.9c1.2-0.6,1.5-2.3,0.9-3.4
				c-0.7-1.2-2.2-1.5-3.4-0.9c-6.4,3.2-14.2,2.8-21.1,2.2c-7.5-0.7-14.9-2.1-22.4-2.5C14.3,34.4,14.3,39.4,17.5,39.5L17.5,39.5z"/>
		</g>
	</g>
</g>
</svg>
